<svg width="69" height="48" viewBox="0 0 69 48" fill="none" xmlns="http://www.w3.org/2000/svg">
<path fill-rule="evenodd" clip-rule="evenodd" d="M14.8887 11H15.5654V3.56934H14.8887V11ZM15.2236 0.848633C14.9365 0.848633 14.793 1.06738 14.793 1.50488C14.793 1.94694 14.9365 2.16797 15.2236 2.16797C15.3649 2.16797 15.4743 2.10872 15.5518 1.99023C15.6338 1.87174 15.6748 1.70996 15.6748 1.50488C15.6748 1.29525 15.6338 1.13346 15.5518 1.01953C15.4743 0.905599 15.3649 0.848633 15.2236 0.848633ZM7.43066 3.87695C7.43066 4.8431 7.10254 5.58366 6.44629 6.09863C5.79004 6.61361 4.86035 6.87109 3.65723 6.87109H2.1123V11H1.41504V1.00586H3.8623C6.24121 1.00586 7.43066 1.96289 7.43066 3.87695ZM2.1123 6.26953H3.48633C4.61198 6.26953 5.42546 6.08496 5.92676 5.71582C6.42806 5.34212 6.67871 4.73828 6.67871 3.9043C6.67871 3.13411 6.44173 2.56445 5.96777 2.19531C5.49381 1.82161 4.76009 1.63477 3.7666 1.63477H2.1123V6.26953ZM12.3594 3.42578C12.6738 3.42578 13.0111 3.45768 13.3711 3.52148L13.2412 4.1709C12.9313 4.09342 12.61 4.05469 12.2773 4.05469C11.6439 4.05469 11.1243 4.32357 10.7188 4.86133C10.3132 5.39909 10.1104 6.07812 10.1104 6.89844V11H9.43359V3.56934H10.0078L10.0762 4.90918H10.124C10.4294 4.3623 10.7552 3.97949 11.1016 3.76074C11.4479 3.53743 11.8672 3.42578 12.3594 3.42578ZM19.6875 11L16.8164 3.56934H17.5137L19.4346 8.62109C19.6898 9.26823 19.8812 9.83333 20.0088 10.3164H20.0498C20.2367 9.69661 20.4281 9.12695 20.624 8.60742L22.5449 3.56934H23.2422L20.3711 11H19.6875ZM28.8271 9.82422L28.998 11H29.4971V6.05762C29.4971 5.15983 29.2943 4.49902 28.8887 4.0752C28.4876 3.65137 27.8792 3.43945 27.0635 3.43945C26.266 3.43945 25.4593 3.63086 24.6436 4.01367L24.8965 4.60156C25.6348 4.21875 26.348 4.02734 27.0361 4.02734C27.6742 4.02734 28.1367 4.20736 28.4238 4.56738C28.7109 4.92741 28.8545 5.46061 28.8545 6.16699V6.65918L27.4395 6.7002C26.2956 6.72298 25.4206 6.9349 24.8145 7.33594C24.2129 7.73698 23.9121 8.2998 23.9121 9.02441C23.9121 9.68522 24.1149 10.2025 24.5205 10.5762C24.9261 10.9499 25.4935 11.1367 26.2227 11.1367C26.7604 11.1367 27.2253 11.0387 27.6172 10.8428C28.0137 10.6423 28.3988 10.3027 28.7725 9.82422H28.8271ZM28.1367 9.84473C27.681 10.2959 27.0566 10.5215 26.2637 10.5215C25.7441 10.5215 25.3408 10.3939 25.0537 10.1387C24.7712 9.87891 24.6299 9.5166 24.6299 9.05176C24.6299 8.46842 24.8509 8.04004 25.293 7.7666C25.7396 7.48861 26.4847 7.32454 27.5283 7.27441L28.8271 7.21973V7.95117C28.8271 8.75781 28.597 9.389 28.1367 9.84473ZM34.877 11.1367C33.8151 11.1367 32.9834 10.8018 32.3818 10.1318C31.7803 9.46191 31.4795 8.52767 31.4795 7.3291C31.4795 6.09863 31.7917 5.1416 32.416 4.45801C33.0404 3.76986 33.8949 3.42578 34.9795 3.42578C35.6221 3.42578 36.2373 3.53743 36.8252 3.76074L36.6406 4.3623C35.998 4.14811 35.4398 4.04102 34.9658 4.04102C34.0544 4.04102 33.3639 4.32357 32.8945 4.88867C32.4251 5.44922 32.1904 6.25814 32.1904 7.31543C32.1904 8.31803 32.4251 9.10417 32.8945 9.67383C33.3639 10.2389 34.0202 10.5215 34.8633 10.5215C35.5378 10.5215 36.1644 10.4007 36.7432 10.1592V10.7881C36.2692 11.0205 35.6471 11.1367 34.877 11.1367ZM38.0215 3.56934H37.3242L40.168 11C40.1133 11.1504 39.9902 11.474 39.7988 11.9707C39.612 12.472 39.4456 12.8366 39.2998 13.0645C39.1585 13.2969 38.999 13.4678 38.8213 13.5771C38.6436 13.6865 38.4385 13.7412 38.2061 13.7412C37.9007 13.7412 37.6159 13.7048 37.3516 13.6318V14.2197C37.6706 14.3154 37.96 14.3633 38.2197 14.3633C38.5661 14.3633 38.86 14.3018 39.1016 14.1787C39.3477 14.0557 39.5618 13.8711 39.7441 13.625C39.9264 13.3789 40.152 12.9049 40.4209 12.2031L43.75 3.56934H43.0527L41.4805 7.69824C41.0475 8.86491 40.7354 9.74219 40.5439 10.3301H40.5029C40.3753 9.88346 40.0723 9.01986 39.5938 7.73926L38.0215 3.56934ZM5.68066 37.4912C4.42741 37.4912 3.44076 37.8923 2.7207 38.6943C2.00065 39.4964 1.64062 40.5947 1.64062 41.9893C1.64062 43.4157 1.98014 44.5231 2.65918 45.3115C3.33822 46.0999 4.30892 46.4941 5.57129 46.4941C6.40983 46.4941 7.18001 46.387 7.88184 46.1729V46.7881C7.22103 47.0205 6.39616 47.1367 5.40723 47.1367C4.00358 47.1367 2.89844 46.6833 2.0918 45.7764C1.28516 44.8695 0.881836 43.6025 0.881836 41.9756C0.881836 40.9593 1.07324 40.0638 1.45605 39.2891C1.84342 38.5143 2.39714 37.9173 3.11719 37.498C3.8418 37.0742 4.68262 36.8623 5.63965 36.8623C6.61491 36.8623 7.48763 37.0446 8.25781 37.4092L7.97754 38.0381C7.24837 37.6735 6.48275 37.4912 5.68066 37.4912ZM16.085 43.2744C16.085 44.4867 15.791 45.4346 15.2031 46.1182C14.6152 46.7972 13.804 47.1367 12.7695 47.1367C12.1178 47.1367 11.5436 46.9795 11.0469 46.665C10.5501 46.3506 10.1696 45.8994 9.90527 45.3115C9.64095 44.7236 9.50879 44.0446 9.50879 43.2744C9.50879 42.0622 9.80273 41.1188 10.3906 40.4443C10.9785 39.7653 11.7852 39.4258 12.8105 39.4258C13.8314 39.4258 14.6312 39.7699 15.21 40.458C15.7933 41.1416 16.085 42.0804 16.085 43.2744ZM10.2197 43.2744C10.2197 44.2952 10.443 45.0928 10.8896 45.667C11.3408 46.2367 11.9766 46.5215 12.7969 46.5215C13.6172 46.5215 14.2507 46.2367 14.6973 45.667C15.1484 45.0928 15.374 44.2952 15.374 43.2744C15.374 42.249 15.1462 41.4538 14.6904 40.8887C14.2393 40.3236 13.6035 40.041 12.7832 40.041C11.9629 40.041 11.3294 40.3236 10.8828 40.8887C10.4408 41.4492 10.2197 42.2445 10.2197 43.2744ZM23.3242 42.1807V47H23.9941V42.1396C23.9941 40.3304 23.151 39.4258 21.4648 39.4258C20.2298 39.4258 19.3708 39.8132 18.8877 40.5879H18.8467L18.7168 39.5693H18.1426V47H18.8193V42.8984C18.8193 41.8913 19.0244 41.1644 19.4346 40.7178C19.8493 40.2666 20.501 40.041 21.3896 40.041C22.0505 40.041 22.5381 40.2119 22.8525 40.5537C23.167 40.8909 23.3242 41.4333 23.3242 42.1807ZM28.3623 46.5352C28.7907 46.5352 29.1644 46.4987 29.4834 46.4258V46.9727C29.1553 47.082 28.777 47.1367 28.3486 47.1367C27.6924 47.1367 27.207 46.9613 26.8926 46.6104C26.5827 46.2594 26.4277 45.708 26.4277 44.9561V40.1572H25.3271V39.7607L26.4277 39.4531L26.7695 37.7715H27.1182V39.5693H29.2988V40.1572H27.1182V44.8604C27.1182 45.43 27.2184 45.8516 27.4189 46.125C27.6195 46.3984 27.9339 46.5352 28.3623 46.5352ZM35.4307 45.8242L35.6016 47H36.1006V42.0576C36.1006 41.1598 35.8978 40.499 35.4922 40.0752C35.0911 39.6514 34.4827 39.4395 33.667 39.4395C32.8695 39.4395 32.0628 39.6309 31.2471 40.0137L31.5 40.6016C32.2383 40.2188 32.9515 40.0273 33.6396 40.0273C34.2777 40.0273 34.7402 40.2074 35.0273 40.5674C35.3145 40.9274 35.458 41.4606 35.458 42.167V42.6592L34.043 42.7002C32.8991 42.723 32.0241 42.9349 31.418 43.3359C30.8164 43.737 30.5156 44.2998 30.5156 45.0244C30.5156 45.6852 30.7184 46.2025 31.124 46.5762C31.5296 46.9499 32.097 47.1367 32.8262 47.1367C33.3639 47.1367 33.8288 47.0387 34.2207 46.8428C34.6172 46.6423 35.0023 46.3027 35.376 45.8242H35.4307ZM34.7402 45.8447C34.2845 46.2959 33.6602 46.5215 32.8672 46.5215C32.3477 46.5215 31.9443 46.3939 31.6572 46.1387C31.3747 45.8789 31.2334 45.5166 31.2334 45.0518C31.2334 44.4684 31.4544 44.04 31.8965 43.7666C32.3431 43.4886 33.0882 43.3245 34.1318 43.2744L35.4307 43.2197V43.9512C35.4307 44.7578 35.2005 45.389 34.7402 45.8447ZM41.4805 47.1367C40.4186 47.1367 39.5869 46.8018 38.9854 46.1318C38.3838 45.4619 38.083 44.5277 38.083 43.3291C38.083 42.0986 38.3952 41.1416 39.0195 40.458C39.6439 39.7699 40.4984 39.4258 41.583 39.4258C42.2256 39.4258 42.8408 39.5374 43.4287 39.7607L43.2441 40.3623C42.6016 40.1481 42.0433 40.041 41.5693 40.041C40.6579 40.041 39.9674 40.3236 39.498 40.8887C39.0286 41.4492 38.7939 42.2581 38.7939 43.3154C38.7939 44.318 39.0286 45.1042 39.498 45.6738C39.9674 46.2389 40.6237 46.5215 41.4668 46.5215C42.1413 46.5215 42.7679 46.4007 43.3467 46.1592V46.7881C42.8727 47.0205 42.2507 47.1367 41.4805 47.1367ZM48.2549 46.4258C47.9359 46.4987 47.5622 46.5352 47.1338 46.5352C46.7054 46.5352 46.3909 46.3984 46.1904 46.125C45.9899 45.8516 45.8896 45.43 45.8896 44.8604V40.1572H48.0703V39.5693H45.8896V37.7715H45.541L45.1992 39.4531L44.0986 39.7607V40.1572H45.1992V44.9561C45.1992 45.708 45.3542 46.2594 45.6641 46.6104C45.9785 46.9613 46.4639 47.1367 47.1201 47.1367C47.5485 47.1367 47.9268 47.082 48.2549 46.9727V46.4258ZM61.0176 37.0059V43.4727C61.0176 44.6211 60.6849 45.5189 60.0195 46.166C59.3542 46.8132 58.4268 47.1367 57.2373 47.1367C56.0798 47.1367 55.1751 46.8132 54.5234 46.166C53.8763 45.5143 53.5527 44.6074 53.5527 43.4453V37.0059H54.2568V43.4727C54.2568 44.4342 54.5234 45.1839 55.0566 45.7217C55.5898 46.2549 56.3441 46.5215 57.3193 46.5215C58.2718 46.5215 59.0101 46.2594 59.5342 45.7354C60.0583 45.2067 60.3203 44.4753 60.3203 43.541V37.0059H61.0176ZM67.4229 46.6035C67.9287 46.2435 68.1816 45.7308 68.1816 45.0654C68.1816 44.7327 68.1042 44.4434 67.9492 44.1973C67.7988 43.9512 67.571 43.7324 67.2656 43.541C66.9603 43.3451 66.4727 43.1263 65.8027 42.8848C65.0006 42.5977 64.4606 42.3379 64.1826 42.1055C63.9092 41.873 63.7725 41.5632 63.7725 41.1758C63.7725 40.8203 63.9502 40.5423 64.3057 40.3418C64.6611 40.1413 65.1419 40.041 65.748 40.041C66.3724 40.041 67.0492 40.1914 67.7783 40.4922L68.0312 39.877C67.3112 39.5762 66.5501 39.4258 65.748 39.4258C64.9095 39.4258 64.2555 39.5876 63.7861 39.9111C63.3213 40.2347 63.0889 40.6745 63.0889 41.2305C63.0889 41.5814 63.1641 41.8799 63.3145 42.126C63.4694 42.3675 63.6973 42.5863 63.998 42.7822C64.2988 42.9736 64.8206 43.2038 65.5635 43.4727C66.2562 43.7188 66.7529 43.9694 67.0537 44.2246C67.359 44.4798 67.5117 44.7943 67.5117 45.168C67.5117 45.5736 67.3203 45.8994 66.9375 46.1455C66.5592 46.387 66.0033 46.5078 65.2695 46.5078C64.4401 46.5078 63.6517 46.321 62.9043 45.9473V46.6787C63.4876 46.9841 64.276 47.1367 65.2695 47.1367C66.1992 47.1367 66.917 46.959 67.4229 46.6035Z" fill="#A6A4A4"/>
</svg>
