<svg width="100" height="46" viewBox="0 0 100 46" fill="none" xmlns="http://www.w3.org/2000/svg">
<path d="M40.9091 0H4.54546C2.03515 0 0 2.03515 0 4.54546C0 7.05576 2.03515 9.09091 4.54546 9.09091H40.9091C43.4194 9.09091 45.4546 7.05576 45.4546 4.54546C45.4546 2.03515 43.4194 0 40.9091 0Z" fill="#DDDDDD"/>
<path d="M40.9091 18.1816H4.54546C2.03515 18.1816 0 20.2168 0 22.7271C0 25.2374 2.03515 27.2726 4.54546 27.2726H40.9091C43.4194 27.2726 45.4546 25.2374 45.4546 22.7271C45.4546 20.2168 43.4194 18.1816 40.9091 18.1816Z" fill="#DDDDDD"/>
<path d="M40.9091 36.3633H4.54546C2.03515 36.3633 0 38.3984 0 40.9087C0 43.419 2.03515 45.4542 4.54546 45.4542H40.9091C43.4194 45.4542 45.4546 43.419 45.4546 40.9087C45.4546 38.3984 43.4194 36.3633 40.9091 36.3633Z" fill="#DDDDDD"/>
<path d="M99.6534 11.8974C98.9497 10.1989 97.2925 9.09131 95.454 9.09131H59.0903C57.2518 9.09131 55.5946 10.1989 54.8909 11.8974C54.1876 13.5959 54.5764 15.551 55.8764 16.851L74.0582 35.0328C74.9455 35.9204 76.1088 36.364 77.2722 36.364C78.4355 36.364 79.5988 35.9204 80.4861 35.0325L98.6679 16.8507C99.9682 15.551 100.357 13.5959 99.6534 11.8974Z" fill="#DDDDDD"/>
</svg>
