<svg width="30" height="30" viewBox="0 0 30 30" fill="none" xmlns="http://www.w3.org/2000/svg">
<path d="M2.89592 2.89597C6.75721 -0.965322 13.0402 -0.965322 16.9015 2.89597C20.4233 6.41771 20.7313 11.9523 17.8296 15.8285L19.5465 17.5453C20.361 17.3808 21.2396 17.6129 21.8709 18.2449L29.249 25.623C30.2503 26.6243 30.2503 28.2481 29.249 29.2494C28.2477 30.2507 26.6239 30.2507 25.6226 29.2494L18.2449 21.8717C17.6132 21.2407 17.3811 20.3614 17.5456 19.5476L15.8288 17.8307C11.9526 20.7328 6.41801 20.4244 2.89627 16.9026C-0.965368 13.0406 -0.965368 6.75725 2.89592 2.89597ZM14.9007 14.9011C17.6588 12.1426 17.6588 7.65528 14.9007 4.89717C12.1426 2.13906 7.65488 2.1387 4.89642 4.89717C2.13795 7.65528 2.13866 12.143 4.89642 14.9011C7.65488 17.6592 12.1422 17.6592 14.9007 14.9011Z" fill="#DDDDDD"/>
</svg>
