<svg width="250" height="50" viewBox="0 0 250 50" fill="none" xmlns="http://www.w3.org/2000/svg">
<path fill-rule="evenodd" clip-rule="evenodd" d="M249 1H1V49H249V1ZM0 0V50H250V0H0ZM99.3745 34H95.6514V15.0059H99.3745V34ZM84.0303 24.5518H85.2754C86.4391 24.5518 87.3099 24.3239 87.8877 23.8682C88.4655 23.4043 88.7544 22.7329 88.7544 21.854C88.7544 20.967 88.5103 20.3118 88.022 19.8887C87.5418 19.4655 86.785 19.2539 85.7515 19.2539H84.0303V24.5518ZM92.5752 21.7197C92.5752 23.6403 91.973 25.1092 90.7686 26.1265C89.5723 27.1437 87.8673 27.6523 85.6538 27.6523H84.0303V34H80.2461V16.1533H85.9468C88.1115 16.1533 89.7554 16.6213 90.8784 17.5571C92.0096 18.4849 92.5752 19.8724 92.5752 21.7197ZM111.24 32.1445L111.96 34H114.56V24.9058C114.56 23.2782 114.072 22.0656 113.095 21.2681C112.119 20.4705 110.715 20.0718 108.884 20.0718C106.971 20.0718 105.23 20.4827 103.659 21.3047L104.892 23.8193C106.365 23.1602 107.647 22.8306 108.737 22.8306C110.153 22.8306 110.861 23.5223 110.861 24.9058V25.5039L108.493 25.5771C106.451 25.6504 104.921 26.0329 103.903 26.7246C102.894 27.4082 102.39 28.4743 102.39 29.9229C102.39 31.3063 102.764 32.3724 103.513 33.1211C104.27 33.8698 105.303 34.2441 106.613 34.2441C107.679 34.2441 108.542 34.0936 109.201 33.7925C109.868 33.4832 110.515 32.9339 111.142 32.1445H111.24ZM109.421 27.7256L110.861 27.6768V28.7998C110.861 29.6217 110.601 30.2809 110.08 30.7773C109.567 31.2738 108.88 31.522 108.017 31.522C106.813 31.522 106.21 30.9971 106.21 29.9473C106.21 29.2148 106.475 28.6696 107.004 28.3115C107.533 27.9535 108.339 27.7581 109.421 27.7256ZM116.452 20.3525H120.529L123.105 28.0308C123.325 28.6981 123.475 29.4875 123.557 30.3989H123.63C123.719 29.5607 123.894 28.7713 124.155 28.0308L126.682 20.3525H130.673L124.899 35.7456C124.37 37.1698 123.614 38.2358 122.629 38.9438C121.652 39.6519 120.509 40.0059 119.199 40.0059C118.556 40.0059 117.925 39.9367 117.307 39.7983V36.8442C117.754 36.95 118.243 37.0029 118.771 37.0029C119.431 37.0029 120.004 36.7995 120.493 36.3926C120.989 35.9938 121.376 35.3875 121.652 34.5737L121.872 33.9023L116.452 20.3525ZM148.215 32.8525C149.379 31.9248 149.96 30.6553 149.96 29.0439C149.96 27.8802 149.651 26.8996 149.033 26.1021C148.414 25.2964 147.271 24.4948 145.603 23.6973C144.341 23.0951 143.54 22.68 143.198 22.4521C142.864 22.2161 142.62 21.9761 142.465 21.7319C142.311 21.4797 142.233 21.1867 142.233 20.853C142.233 20.3159 142.425 19.8805 142.807 19.5469C143.19 19.2132 143.739 19.0464 144.455 19.0464C145.057 19.0464 145.668 19.1237 146.286 19.2783C146.913 19.4329 147.702 19.7056 148.654 20.0962L149.875 17.1543C148.955 16.7555 148.072 16.4463 147.226 16.2266C146.388 16.0068 145.505 15.897 144.577 15.897C142.689 15.897 141.208 16.3486 140.134 17.252C139.068 18.1553 138.535 19.3963 138.535 20.9751C138.535 21.8133 138.697 22.5457 139.023 23.1724C139.348 23.799 139.784 24.3483 140.329 24.8203C140.874 25.2923 141.692 25.7847 142.783 26.2974C143.946 26.8507 144.715 27.2536 145.09 27.5059C145.472 27.7581 145.761 28.0226 145.957 28.2993C146.152 28.5679 146.25 28.8771 146.25 29.2271C146.25 29.8537 146.026 30.3257 145.578 30.6431C145.139 30.9604 144.504 31.1191 143.674 31.1191C142.982 31.1191 142.217 31.0093 141.379 30.7896C140.549 30.5698 139.532 30.1914 138.327 29.6543V33.1699C139.792 33.8861 141.477 34.2441 143.381 34.2441C145.448 34.2441 147.059 33.7803 148.215 32.8525ZM165.5 34H161.777V26.0288C161.777 24.0594 161.044 23.0747 159.58 23.0747C158.538 23.0747 157.785 23.4287 157.321 24.1367C156.857 24.8447 156.625 25.9922 156.625 27.5791V34H152.902V15.0059H156.625V18.8755C156.625 19.1766 156.597 19.8846 156.54 20.9995L156.455 22.0981H156.65C157.48 20.7635 158.798 20.0962 160.605 20.0962C162.208 20.0962 163.425 20.5275 164.255 21.3901C165.085 22.2528 165.5 23.4897 165.5 25.1011V34ZM172.958 30.2158C172.519 29.5241 172.299 28.5028 172.299 27.1519C172.299 25.7928 172.519 24.7796 172.958 24.1123C173.398 23.4368 174.114 23.0991 175.107 23.0991C176.108 23.0991 176.828 23.4368 177.268 24.1123C177.707 24.7878 177.927 25.8009 177.927 27.1519C177.927 28.5109 177.707 29.5363 177.268 30.228C176.836 30.9116 176.124 31.2534 175.131 31.2534C174.13 31.2534 173.406 30.9076 172.958 30.2158ZM179.978 32.3643C181.149 31.111 181.735 29.3735 181.735 27.1519C181.735 25.7196 181.467 24.4704 180.93 23.4043C180.393 22.3382 179.624 21.5203 178.623 20.9507C177.622 20.381 176.466 20.0962 175.156 20.0962C173.048 20.0962 171.412 20.7147 170.249 21.9517C169.085 23.1886 168.503 24.922 168.503 27.1519C168.503 28.5841 168.771 29.8374 169.309 30.9116C169.846 31.9858 170.615 32.8118 171.616 33.3896C172.617 33.9593 173.772 34.2441 175.083 34.2441C177.174 34.2441 178.806 33.6175 179.978 32.3643ZM196.03 34L194.98 29.2271L193.564 23.1968H193.479L190.988 34H186.984L183.103 20.3525H186.813L188.388 26.395C188.64 27.4774 188.897 28.9707 189.157 30.875H189.23C189.263 30.2565 189.405 29.2759 189.658 27.9331L189.853 26.8955L191.538 20.3525H195.639L197.238 26.8955C197.271 27.0745 197.32 27.339 197.385 27.689C197.458 28.0389 197.527 28.4132 197.592 28.812C197.657 29.2026 197.714 29.5892 197.763 29.9717C197.82 30.346 197.853 30.6471 197.861 30.875H197.934C198.007 30.2891 198.138 29.4875 198.325 28.4702C198.512 27.4448 198.646 26.7531 198.728 26.395L200.363 20.3525H204.013L200.083 34H196.03ZM48 26.232C49.3333 25.4622 49.3333 23.5377 48 22.7679L35.25 15.4067C33.9167 14.6369 32.25 15.5991 32.25 17.1387V31.8612C32.25 33.4008 33.9167 34.363 35.25 33.5932L48 26.232Z" fill="white"/>
</svg>
