<svg width="300" height="38" viewBox="0 0 300 38" fill="none" xmlns="http://www.w3.org/2000/svg">
<path fill-rule="evenodd" clip-rule="evenodd" d="M2.09595 0H35.8775C37.0355 0 37.9741 0.937299 37.9747 2.0947V35.8775C37.9747 37.033 37.0349 37.9728 35.8769 37.9728H26.2006V23.2662H31.1353L31.8775 17.5348H26.2012V13.8763C26.2012 12.2174 26.6602 11.0863 29.0394 11.0863L32.0745 11.085V5.95895C31.5499 5.89079 29.751 5.73384 27.6531 5.73384C23.2774 5.73384 20.2829 8.40568 20.2829 13.3098V17.5367H15.3344V23.2687H20.2829V37.9747H2.09595C0.939175 37.9747 0 37.0361 0 35.8775V2.09595C0 0.937299 0.939175 0 2.09595 0ZM114.837 0H97.8212C92.0429 0 87.3418 4.70129 87.3418 10.4796V27.495C87.3418 33.2736 92.0429 37.9747 97.8212 37.9747H114.837C120.615 37.9747 125.316 33.2734 125.316 27.495V10.4796C125.317 4.70129 120.615 0 114.837 0ZM121.947 27.495C121.947 31.4158 118.758 34.6054 114.837 34.6054H97.8212C93.9007 34.6056 90.7111 31.4158 90.7111 27.495V10.4796C90.7111 6.55912 93.9007 3.3693 97.8212 3.3693H114.837C118.757 3.3693 121.947 6.55912 121.947 10.4796V27.495H121.947ZM106.328 9.20264C100.933 9.20264 96.5433 13.5922 96.5433 18.9878C96.5433 24.3831 100.933 28.7724 106.328 28.7724C111.724 28.7724 116.114 24.3831 116.114 18.9878C116.114 13.5922 111.724 9.20264 106.328 9.20264ZM106.328 25.4029C102.791 25.4029 99.9126 22.5251 99.9126 18.9875C99.9126 15.4498 102.791 12.5717 106.328 12.5717C109.866 12.5717 112.744 15.4498 112.744 18.9875C112.744 22.5251 109.866 25.4029 106.328 25.4029ZM114.779 7.06898C115.238 6.60851 115.876 6.3457 116.525 6.3457C117.176 6.3457 117.814 6.60851 118.272 7.06898C118.733 7.5272 118.995 8.16512 118.995 8.81652C118.995 9.46567 118.733 10.1036 118.272 10.5641C117.812 11.0223 117.176 11.2873 116.525 11.2873C115.876 11.2873 115.238 11.0223 114.779 10.5641C114.319 10.1036 114.054 9.4659 114.054 8.81652C114.054 8.16512 114.319 7.5272 114.779 7.06898ZM209.961 8.05468C210.588 7.87338 211.201 7.65007 211.798 7.38547C212.047 7.27498 212.339 7.34247 212.514 7.55121C212.69 7.75983 212.706 8.05933 212.555 8.28596C211.557 9.77811 210.332 11.0764 208.908 12.1491C208.915 12.3742 208.918 12.6001 208.918 12.8238C208.918 18.1781 206.848 23.5971 203.24 27.6911C200.345 30.9744 195.153 34.8882 186.854 34.8882C182.632 34.8882 178.521 33.6833 174.965 31.4038C174.725 31.2498 174.623 30.9503 174.72 30.6816C174.816 30.4131 175.086 30.2464 175.368 30.28C175.936 30.3472 176.517 30.3811 177.095 30.3811C179.862 30.3811 182.498 29.6248 184.804 28.181C182.024 27.5557 179.725 25.505 178.832 22.7169C178.766 22.5111 178.813 22.2857 178.957 22.124C179.1 21.9622 179.318 21.8878 179.53 21.9284C179.736 21.9677 179.943 21.9977 180.15 22.0184C177.738 20.5797 176.16 17.9399 176.16 15.0079C176.16 14.9864 176.16 14.9649 176.16 14.9436C176.16 14.9287 176.16 14.9139 176.161 14.899C176.165 14.6845 176.282 14.4883 176.468 14.3816C176.654 14.2749 176.883 14.2733 177.07 14.3776C177.419 14.5712 177.785 14.7343 178.161 14.8647C176.923 13.4085 176.221 11.5448 176.221 9.58052C176.221 8.13835 176.603 6.72091 177.325 5.4816C177.427 5.30802 177.607 5.19507 177.807 5.17939C178.007 5.16335 178.203 5.24726 178.329 5.40295C181.89 9.77113 187.076 12.5128 192.654 13.0025C192.61 12.6554 192.587 12.3033 192.587 11.9493C192.587 7.45431 196.244 3.79736 200.74 3.79736C202.869 3.79736 204.929 4.64077 206.446 6.12275C207.951 5.79103 209.387 5.22374 210.718 4.43436C210.937 4.30463 211.213 4.32362 211.412 4.48213C211.611 4.64052 211.691 4.90561 211.614 5.14779C211.269 6.22822 210.703 7.21556 209.961 8.05468ZM295.238 6.22228C297.227 6.44454 298.879 7.93452 299.344 9.95409C300 12.8066 300 15.9182 300 18.8579V18.8583V18.9308C300 21.8916 299.998 25.0307 299.336 27.9068C298.871 29.9263 297.218 31.4163 295.231 31.6386C290.523 32.1646 285.757 32.1674 281.011 32.1646C276.266 32.1674 271.5 32.1646 266.791 31.6386C264.802 31.4159 263.151 29.9259 262.687 27.9068C262.025 25.0311 262.025 21.892 262.025 18.9308C262.025 15.9697 262.033 12.8302 262.695 9.95409C263.159 7.93452 264.81 6.44454 266.798 6.22228C271.507 5.69661 276.274 5.69387 281.019 5.69661C285.763 5.69387 290.529 5.69661 295.238 6.22228ZM276.112 12.2665V24.8249L281.182 22.196L281.271 22.1502L281.521 22.0205C283.739 20.8705 285.956 19.721 288.185 18.5651C284.135 16.4522 280.137 14.3664 276.112 12.2665Z" fill="#A6A4A4"/>
</svg>
